<?xml version="1.0" encoding="utf-8"?>
<!-- Generator: Adobe Illustrator 17.0.0, SVG Export Plug-In . SVG Version: 6.00 Build 0)  -->
<!DOCTYPE svg PUBLIC "-//W3C//DTD SVG 1.1//EN" "http://www.w3.org/Graphics/SVG/1.1/DTD/svg11.dtd">
<svg version="1.1" id="Layer_1" xmlns="http://www.w3.org/2000/svg" xmlns:xlink="http://www.w3.org/1999/xlink" x="0px" y="0px"
	 width="210px" height="100px" viewBox="0 0 210 100" enable-background="new 0 0 210 100" xml:space="preserve">
<g>
	<g>
		<g>
			<path fill="#E3E422" d="M75.001,3.163c12.058,0,21.835,9.778,21.835,21.838c0,12.062-9.777,21.835-21.835,21.835
				c-12.06,0-21.838-9.774-21.838-21.835C53.164,12.941,62.941,3.163,75.001,3.163 M75.001,1.163
				c-13.144,0-23.838,10.694-23.838,23.838c0,13.143,10.694,23.835,23.838,23.835c13.143,0,23.835-10.693,23.835-23.835
				C98.836,11.857,88.144,1.163,75.001,1.163L75.001,1.163z"/>
		</g>
		<circle fill="none" stroke="#E3E422" stroke-miterlimit="10" cx="75" cy="7.775" r="0.94"/>
		<circle fill="none" stroke="#E3E422" stroke-miterlimit="10" cx="62.819" cy="12.821" r="0.939"/>
		<circle fill="none" stroke="#E3E422" stroke-miterlimit="10" cx="57.774" cy="25.001" r="0.938"/>
		<circle fill="none" stroke="#E3E422" stroke-miterlimit="10" cx="62.819" cy="37.182" r="0.94"/>
		<circle fill="none" stroke="#E3E422" stroke-miterlimit="10" cx="75" cy="42.228" r="0.94"/>
		<circle fill="none" stroke="#E3E422" stroke-miterlimit="10" cx="87.181" cy="37.182" r="0.94"/>
		<circle fill="none" stroke="#E3E422" stroke-miterlimit="10" cx="92.225" cy="25.001" r="0.938"/>
		<circle fill="none" stroke="#E3E422" stroke-miterlimit="10" cx="87.181" cy="12.821" r="0.939"/>
		
			<polyline fill="none" stroke="#E3E422" stroke-width="2" stroke-linecap="round" stroke-linejoin="round" stroke-miterlimit="10" points="
			75,13.76 75.001,25 82.461,33.023 		"/>
	</g>
</g>
<g>
	<circle fill="none" stroke="#0293D2" stroke-width="2" stroke-miterlimit="10" cx="125.512" cy="44.146" r="2.512"/>
	<circle fill="none" stroke="#0293D2" stroke-width="2" stroke-miterlimit="10" cx="142.272" cy="44.488" r="2.513"/>
	<g>
		<g>
			<g>
				<path fill="#0293D2" d="M112.777,3c0.037,0,0.073,0.008,0.11,0.011c0.067,0.005,0.134,0.009,0.2,0.021
					c0.064,0.01,0.122,0.024,0.183,0.041c0.061,0.015,0.119,0.034,0.175,0.054c0.061,0.023,0.119,0.048,0.175,0.076
					c0.057,0.027,0.109,0.053,0.163,0.087c0.052,0.032,0.101,0.068,0.151,0.105c0.051,0.039,0.1,0.077,0.145,0.119
					c0.047,0.042,0.089,0.088,0.131,0.134c0.04,0.046,0.08,0.091,0.118,0.142c0.04,0.055,0.075,0.115,0.112,0.176
					c0.018,0.031,0.04,0.056,0.056,0.09l2.785,5.458c0.019,0.039,0.026,0.081,0.044,0.12l35.921,0.003
					c0.035-0.002,0.071-0.003,0.106-0.003c0.478,0,0.956,0.175,1.331,0.532c0.503,0.479,0.693,1.166,0.559,1.8l-3.911,23.418
					c-0.052,0.596-0.381,1.158-0.933,1.489c-0.31,0.184-0.65,0.274-0.986,0.274c-0.014,0-0.028,0-0.042,0h-29.083h-0.04
					c-0.018,0-0.036,0.001-0.053,0.001c-0.534,0-1.065-0.212-1.448-0.64c-0.264-0.294-0.419-0.546-0.473-0.909l-0.006-0.041
					l-3.994-23.812c-0.483-0.859-2.681-4.881-2.681-4.881h-4.942c-1.066,0-1.932-0.864-1.932-1.932c0-1.066,0.865-1.931,1.932-1.931
					H112.777 M112.777,1h-6.128c-2.168,0-3.932,1.763-3.932,3.931c0,2.168,1.764,3.932,3.932,3.932h3.757
					c0.596,1.089,1.503,2.745,1.951,3.553l3.937,23.471c0.138,0.936,0.587,1.536,0.962,1.954c0.739,0.828,1.811,1.305,2.936,1.305
					l0.054-0.001h29.123c0.001,0,0.002,0,0.003,0c0.743,0,1.436-0.192,2.047-0.554c1.06-0.636,1.76-1.73,1.895-2.943l3.894-23.317
					c0.265-1.328-0.161-2.676-1.146-3.614c-0.734-0.699-1.697-1.083-2.71-1.083c-0.05,0-0.1,0.001-0.151,0.003l-34.634-0.003
					l-2.282-4.472c-0.046-0.093-0.096-0.178-0.151-0.26c-0.072-0.118-0.131-0.209-0.193-0.295c-0.079-0.107-0.152-0.193-0.227-0.278
					l-0.017-0.019l-0.019-0.021c-0.086-0.093-0.168-0.178-0.258-0.259c-0.069-0.065-0.169-0.147-0.276-0.228l-0.02-0.016
					l-0.021-0.015c-0.105-0.076-0.188-0.134-0.274-0.187c-0.105-0.066-0.223-0.128-0.352-0.189c-0.08-0.041-0.202-0.094-0.332-0.143
					c-0.132-0.048-0.251-0.085-0.372-0.116c-0.121-0.032-0.239-0.059-0.366-0.08c-0.105-0.018-0.22-0.029-0.337-0.038
					C112.971,1.007,112.875,1,112.777,1L112.777,1z"/>
			</g>
		</g>
	</g>
</g>
<g>
	<g>
		<path fill="#EA5079" d="M165.808,40.738c-0.552,0-1-0.447-1-0.999c0-0.34,0.026-8.367,3.069-11.413
			c0.829-0.829,1.805-1.25,2.902-1.25h5.902l0.799-1.6c-3.467-2.391-6.077-7.262-6.077-11.549c0-6.375,4.241-11.002,10.084-11.002
			c5.842,0,10.083,4.627,10.083,11.002c0,4.133-2.396,8.967-5.576,11.444l0.82,1.705h4.673c5.967,0,6.622,11.328,6.677,12.619
			c0.012,0.272-0.088,0.538-0.277,0.734c-0.189,0.197-0.45,0.309-0.722,0.309H165.808z"/>
		<path fill="#FFFFFF" d="M181.487,3.925c5.523,0,9.083,4.479,9.083,10.002c0,3.972-2.487,8.969-5.843,11.118l1.459,3.03
			c2.168,0,3.781,0,5.302,0c5.181,0,5.678,11.662,5.678,11.662h-31.358c0,0-0.012-11.662,4.972-11.662c1.762,0,3.852,0,6.52,0
			l1.482-2.967c-3.63-2.013-6.378-7.011-6.378-11.182C172.403,8.404,175.962,3.925,181.487,3.925 M181.487,1.925
			c-6.423,0-11.084,5.048-11.084,12.002c0,4.371,2.405,9.142,5.807,11.853l-0.147,0.295h-5.284c-1.353,0-2.601,0.534-3.61,1.544
			c-3.276,3.279-3.363,11.225-3.362,12.121c0.001,1.104,0.896,1.998,2,1.998h31.358c0.545,0,1.067-0.223,1.444-0.616
			c0.377-0.394,0.577-0.924,0.554-1.469c-0.059-1.39-0.778-13.577-7.676-13.577h-4.045l-0.209-0.434
			c3.124-2.778,5.336-7.503,5.336-11.714C192.57,6.973,187.909,1.925,181.487,1.925L181.487,1.925z"/>
	</g>
	<g>
		<path fill="#EA5079" d="M192.904,47.074c-0.552,0-1-0.447-1-1v-5.719h-5.72c-0.552,0-1-0.447-1-1v-4.57c0-0.553,0.448-1,1-1h5.72
			v-5.72c0-0.553,0.448-1,1-1h4.569c0.552,0,1,0.447,1,1v5.72h5.719c0.553,0,1,0.447,1,1v4.57c0,0.553-0.447,1-1,1h-5.719v5.719
			c0,0.553-0.448,1-1,1H192.904z"/>
		<path fill="#FFFFFF" d="M197.474,28.065v6.72h6.719v4.57h-6.719v6.72h-4.569v-6.72h-6.72v-4.57h6.72v-6.72H197.474
			 M197.474,26.065h-4.569c-1.105,0-2,0.895-2,2v4.72h-4.72c-1.105,0-2,0.895-2,2v4.57c0,1.105,0.895,2,2,2h4.72v4.72
			c0,1.105,0.895,2,2,2h4.569c1.105,0,2-0.895,2-2v-4.72h4.719c1.105,0,2-0.895,2-2v-4.57c0-1.105-0.895-2-2-2h-4.719v-4.72
			C199.474,26.96,198.578,26.065,197.474,26.065L197.474,26.065z"/>
	</g>
</g>
<g>
	
		<polyline fill="none" stroke="#EA5079" stroke-width="2" stroke-linecap="round" stroke-linejoin="round" stroke-miterlimit="10" points="
		28.977,32.084 37.327,32.084 44.325,46.457 5.675,46.457 11.804,32.084 21.028,32.084 	"/>
	<path fill="none" stroke="#EA5079" stroke-width="2" stroke-miterlimit="10" d="M12.831,15.711C12.831,8.99,18.278,3.543,25,3.543
		c6.721,0,12.169,5.447,12.169,12.168C37.169,24.845,25,34.767,25,39.312C25.051,34.82,12.831,24.845,12.831,15.711z"/>
	<circle fill="none" stroke="#EA5079" stroke-width="2" stroke-miterlimit="10" cx="24.999" cy="16.064" r="2.481"/>
</g>
<g>
	<g>
		<g>
			<path fill="#FBED21" d="M75.001,57.123c9.872,0,17.876,8.005,17.876,17.879c0,9.874-8.004,17.876-17.876,17.876
				c-9.874,0-17.878-8.002-17.878-17.876C57.123,65.127,65.127,57.123,75.001,57.123 M75.001,55.123
				c-10.961,0-19.878,8.918-19.878,19.879c0,10.96,8.917,19.876,19.878,19.876c10.96,0,19.876-8.916,19.876-19.876
				C94.877,64.04,85.961,55.123,75.001,55.123L75.001,55.123z"/>
		</g>
		<circle fill="none" stroke="#FBED21" stroke-miterlimit="10" cx="75.001" cy="60.899" r="0.77"/>
		<circle fill="none" stroke="#FBED21" stroke-miterlimit="10" cx="65.028" cy="65.029" r="0.769"/>
		<circle fill="none" stroke="#FBED21" stroke-miterlimit="10" cx="60.898" cy="75.001" r="0.769"/>
		<circle fill="none" stroke="#FBED21" stroke-miterlimit="10" cx="65.028" cy="84.974" r="0.769"/>
		<circle fill="none" stroke="#FBED21" stroke-miterlimit="10" cx="75.001" cy="89.104" r="0.77"/>
		<circle fill="none" stroke="#FBED21" stroke-miterlimit="10" cx="84.973" cy="84.974" r="0.769"/>
		<circle fill="none" stroke="#FBED21" stroke-miterlimit="10" cx="89.102" cy="75.001" r="0.769"/>
		<circle fill="none" stroke="#FBED21" stroke-miterlimit="10" cx="84.973" cy="65.029" r="0.769"/>
		
			<polyline fill="none" stroke="#FBED21" stroke-width="2" stroke-linecap="round" stroke-linejoin="round" stroke-miterlimit="10" points="
			75,65.797 75.001,75.001 81.109,81.569 		"/>
	</g>
</g>
<g>
	
		<polyline fill="none" stroke="#EA5079" stroke-width="2" stroke-linecap="round" stroke-linejoin="round" stroke-miterlimit="10" points="
		28.226,80.746 34.999,80.746 40.675,92.404 9.325,92.404 14.297,80.746 21.778,80.746 	"/>
	<path fill="none" stroke="#EA5079" stroke-width="2" stroke-miterlimit="10" d="M15.129,67.466c0-5.451,4.419-9.87,9.871-9.87
		c5.451,0,9.871,4.419,9.871,9.87C34.87,74.874,25,82.923,25,86.608C25.042,82.965,15.129,74.874,15.129,67.466z"/>
	<circle fill="none" stroke="#EA5079" stroke-width="2" stroke-miterlimit="10" cx="25" cy="67.751" r="2.012"/>
</g>
<g>
	<circle fill="none" stroke="#0293D2" stroke-width="2" stroke-miterlimit="10" cx="126.405" cy="90.338" r="2.012"/>
	<circle fill="none" stroke="#0293D2" stroke-width="2" stroke-miterlimit="10" cx="139.83" cy="90.611" r="2.013"/>
	<g>
		<g>
			<g>
				<path fill="#0293D2" d="M116.204,57.377c0.029,0,0.059,0.008,0.088,0.01c0.055,0.004,0.107,0.008,0.161,0.016
					c0.051,0.009,0.098,0.02,0.146,0.033c0.048,0.012,0.095,0.027,0.14,0.043c0.049,0.019,0.096,0.039,0.141,0.061
					c0.045,0.021,0.087,0.042,0.13,0.069c0.041,0.025,0.081,0.055,0.121,0.084c0.041,0.031,0.08,0.062,0.116,0.096
					c0.038,0.033,0.071,0.07,0.104,0.107c0.032,0.036,0.065,0.072,0.095,0.113c0.032,0.044,0.061,0.092,0.09,0.141
					c0.015,0.025,0.032,0.045,0.045,0.072l2.231,4.373c0.016,0.031,0.021,0.064,0.036,0.096l28.773,0.002
					c0.029-0.002,0.057-0.002,0.086-0.002c0.383,0,0.766,0.141,1.066,0.426c0.402,0.383,0.555,0.934,0.447,1.441l-3.133,18.759
					c-0.042,0.477-0.306,0.928-0.747,1.192c-0.248,0.148-0.519,0.22-0.788,0.22c-0.012,0-0.024,0-0.036,0h-23.297h-0.032
					c-0.014,0-0.029,0.001-0.043,0.001c-0.427,0-0.852-0.169-1.159-0.513c-0.211-0.235-0.336-0.438-0.378-0.728l-0.005-0.032
					l-3.2-19.075c-0.387-0.688-2.146-3.909-2.146-3.909h-3.96c-0.854,0-1.547-0.693-1.547-1.548c0-0.855,0.693-1.548,1.547-1.548
					H116.204 M116.204,55.377h-4.909c-1.956,0-3.547,1.592-3.547,3.548c0,1.956,1.591,3.548,3.547,3.548h2.774
					c0.457,0.836,1.078,1.968,1.417,2.58l3.143,18.735c0.123,0.851,0.553,1.415,0.866,1.764c0.668,0.748,1.634,1.179,2.649,1.179
					h0.027l0.031-0.001h23.314c0.001,0,0.002,0,0.003,0c0.67,0,1.295-0.174,1.846-0.502c0.949-0.569,1.58-1.551,1.706-2.642
					l3.117-18.664c0.236-1.198-0.149-2.411-1.036-3.254c-0.662-0.63-1.53-0.977-2.444-0.977c-0.043,0-0.086,0.001-0.129,0.002
					l-27.492-0.002l-1.714-3.361c-0.045-0.09-0.093-0.172-0.145-0.251c-0.061-0.101-0.112-0.179-0.167-0.253
					c-0.073-0.098-0.144-0.182-0.217-0.264c-0.081-0.091-0.166-0.179-0.258-0.261c-0.076-0.069-0.157-0.135-0.242-0.2
					c-0.112-0.082-0.196-0.141-0.281-0.194c-0.092-0.059-0.202-0.118-0.321-0.174c-0.093-0.045-0.19-0.087-0.29-0.125l-0.027-0.01
					l-0.027-0.01c-0.091-0.032-0.187-0.062-0.284-0.087c-0.105-0.029-0.207-0.051-0.317-0.07l-0.027-0.005l-0.027-0.004
					c-0.083-0.012-0.164-0.02-0.247-0.027C116.396,55.384,116.299,55.377,116.204,55.377L116.204,55.377z"/>
			</g>
		</g>
	</g>
</g>
</svg>
