<?xml version="1.0" encoding="utf-8"?>
<!-- Generator: Adobe Illustrator 17.0.0, SVG Export Plug-In . SVG Version: 6.00 Build 0)  -->
<!DOCTYPE svg PUBLIC "-//W3C//DTD SVG 1.1//EN" "http://www.w3.org/Graphics/SVG/1.1/DTD/svg11.dtd">
<svg version="1.1" id="Layer_1" xmlns="http://www.w3.org/2000/svg" xmlns:xlink="http://www.w3.org/1999/xlink" x="0px" y="0px"
	 width="15px" height="15px" viewBox="0 0 15 15" enable-background="new 0 0 15 15" xml:space="preserve">
<g>
	<circle fill="#EF7A2C" cx="7.5" cy="7.5" r="7.5"/>
	<g>
		<path fill="#FFFFFF" d="M8.118,7.323C7.782,7.69,7.664,8.026,7.664,8.351c0,0.206,0.011,0.454,0.054,0.649L6.831,8.805
			C6.776,8.6,6.755,8.47,6.755,8.253c0-0.573,0.238-1.157,0.628-1.558c0.389-0.39,0.595-0.682,0.595-1.136
			c0-0.324-0.303-0.758-0.865-0.758c-0.477,0-0.844,0.163-1.18,0.379L5.738,4.305c0.346-0.217,0.822-0.379,1.363-0.379
			c1.104,0,1.925,0.628,1.925,1.731C9.026,6.284,8.702,6.685,8.118,7.323z M7.307,11.087c-0.216,0-0.66-0.443-0.66-0.66
			c0-0.205,0.444-0.649,0.66-0.649c0.228,0,0.66,0.444,0.66,0.649C7.967,10.645,7.534,11.087,7.307,11.087z"/>
	</g>
</g>
</svg>
