<?xml version="1.0" encoding="utf-8"?>
<!-- Generator: Adobe Illustrator 17.0.0, SVG Export Plug-In . SVG Version: 6.00 Build 0)  -->
<!DOCTYPE svg PUBLIC "-//W3C//DTD SVG 1.1//EN" "http://www.w3.org/Graphics/SVG/1.1/DTD/svg11.dtd">
<svg version="1.1" id="Layer_1" xmlns="http://www.w3.org/2000/svg" xmlns:xlink="http://www.w3.org/1999/xlink" x="0px" y="0px"
	 width="170px" height="44px" viewBox="0 0 170 44" enable-background="new 0 0 170 44" xml:space="preserve">
<g id="STC_x5F_LOGO">
	<g>
		<g>
			<g id="LOGO_1_">
				<g id="WHITE_1_">
					<path fill="#FFFFFF" d="M32.036,14.35c-0.642-0.344-1.246-0.648-1.661-0.981c-0.418-0.34-0.63-0.656-0.634-1.112
						c-0.011-0.642,0.55-1.32,1.365-1.857c0.803-0.534,1.814-0.913,2.498-1.037l0.364-0.068l-0.48-1.724l-0.32,0.083
						c-2.581,0.679-5.296,2.534-5.345,4.871c0.016,1.48,1.25,2.32,2.726,3.099c1.727,0.92,2.161,1.283,2.17,2.225
						c0.074,1.472-2.4,2.759-4.11,3.129l-0.367,0.085l0.125,0.356l0.454,1.286l0.303-0.082c3.532-0.953,5.536-3.02,5.553-5.124
						C34.678,16.021,33.643,15.229,32.036,14.35z"/>
					<path fill="#FFFFFF" d="M49.072,7.799h-1.958l0.019,0.356c0.039,0.721,0.117,1.86,0.117,3.188v0.679
						c0.007,3.555-0.097,5.634-0.867,6.919c-0.614,1.04-1.561,1.921-3.38,1.931c-1.56-0.011-2.624-0.702-3.371-2.145
						c-0.671-1.297-0.801-3.135-0.799-5.791v-1.32c0-1.76,0.059-2.663,0.116-3.147l0.043-0.377h-2v0.338
						c0,0.441-0.019,1.862-0.02,2.757l0.001,1.051c-0.004,4.756,0.31,6.338,1.295,7.893c1.434,2.23,3.52,2.451,4.597,2.451
						c0.02,0,0.04,0,0.059,0c1.692,0.004,3.552-0.645,4.768-2.441c1.276-1.842,1.396-4.097,1.399-7.864v-0.894
						c0-1.535-0.019-2.822-0.019-3.244V7.799z"/>
					<path fill="#FFFFFF" d="M63.099,8.243c-0.017,0.55-0.197,7.785-0.229,10.575c-2.273-2.696-9.24-10.435-10.07-11.44
						l-0.102-0.123h-0.197h-0.323l-0.015,0.321C52.065,9.54,51.6,20.463,51.502,21.927l-0.023,0.345l0.345,0.015l1.629,0.074
						l-0.032-0.384c-0.001-0.007-0.002-0.072-0.002-0.158c0-1.279,0.21-8.088,0.264-10.777c2.499,2.987,9.459,10.616,10.154,11.485
						l0.101,0.126h0.2h0.329l0.009-0.33c0.116-4.868,0.466-12.821,0.544-13.993l0.022-0.344L63.11,7.9L63.099,8.243z"/>
					<path fill="#FFFFFF" d="M128.552,20.59l-0.358,0.077c-0.684,0.149-1.603,0.226-2.356,0.226
						c-4.781-0.026-6.502-2.422-6.521-4.694c-0.025-3.156,3.475-6.109,8.212-6.696l0.355-0.043l-0.339-1.834l-0.332,0.063
						c-6.67,1.238-9.889,5.23-9.894,8.803c0.002,1.088,0.486,2.601,1.778,3.861c1.289,1.257,3.381,2.228,6.529,2.228
						c0.006,0,0.011,0,0.016,0c1.183,0,2.201-0.079,2.824-0.203l0.31-0.062l-0.041-0.313L128.552,20.59z"/>
					<path fill="#FFFFFF" d="M130.939,8.357c0.036,0.421,0.076,5.253,0.076,5.569v2.097c0,0.499-0.021,5.06-0.059,5.891
						l-0.015,0.353h0.354h1.633l-0.015-0.353c-0.019-0.427-0.058-3.918-0.057-5.853l-0.001-2.095c0-2.316,0.041-5.309,0.076-5.598
						l0.043-0.376h-2.064L130.939,8.357z"/>
					<path fill="#FFFFFF" d="M141.959,8.188h-1.691c-0.197,0.001-4.543-0.043-5.365-0.134l-0.376-0.042v1.833l0.349-0.01
						c0.575-0.017,2.849-0.09,5.246-0.096v2.926c0.002,3.072-0.019,8.793-0.074,9.225l-0.045,0.378h0.381h1.755l-0.038-0.373
						c-0.037-0.337-0.135-4.992-0.135-8.923V9.74c1.942,0.008,4.905,0.079,5.239,0.096l0.356,0.017V8.023l-0.365,0.03
						C146.278,8.128,142.314,8.19,141.959,8.188z"/>
					<path fill="#FFFFFF" d="M160.485,7.699c-1.296,0.425-2.93,1.6-3.875,2.618c-0.909,0.985-1.652,2.062-2.157,3.489
						c-0.534-1.644-1.446-2.832-2.257-3.738c-0.543-0.604-1.831-1.695-3.131-2.351l-0.299-0.149l-0.84,1.621l0.324,0.148
						c1.013,0.461,2.016,1.25,2.802,2.131c1.464,1.635,2.381,3.766,2.383,6.247v1.454c0,0.239-0.041,2.313-0.058,2.746l-0.016,0.352
						h0.353h1.676l-0.037-0.372c-0.036-0.348-0.075-2.102-0.075-2.354v-1.826c0.002-2.021,0.705-3.996,2.176-5.79
						c1.028-1.255,2.361-2.171,3.624-2.552l0.345-0.105l-0.629-1.67L160.485,7.699z"/>
					<path fill="#FFFFFF" d="M165.38,7.419c-0.15-0.152-0.327-0.27-0.526-0.358c-0.204-0.088-0.417-0.132-0.647-0.132
						c-0.23,0-0.447,0.043-0.647,0.132c-0.201,0.088-0.379,0.207-0.528,0.358c-0.152,0.15-0.27,0.327-0.359,0.527
						c-0.087,0.202-0.132,0.417-0.132,0.647c0,0.23,0.045,0.445,0.132,0.647c0.088,0.201,0.207,0.377,0.359,0.528
						c0.15,0.15,0.327,0.27,0.528,0.356c0.2,0.089,0.416,0.134,0.647,0.134c0.23,0,0.444-0.045,0.647-0.134
						c0.2-0.087,0.377-0.206,0.526-0.356c0.15-0.152,0.27-0.327,0.356-0.528c0.09-0.202,0.134-0.417,0.134-0.647
						c0-0.23-0.043-0.445-0.134-0.647C165.65,7.746,165.531,7.569,165.38,7.419z M165.32,9.082c-0.063,0.153-0.15,0.287-0.26,0.4
						c-0.11,0.113-0.238,0.203-0.383,0.272c-0.147,0.067-0.303,0.1-0.47,0.1c-0.167,0-0.323-0.033-0.47-0.1
						c-0.147-0.068-0.275-0.158-0.386-0.272c-0.11-0.113-0.195-0.247-0.257-0.4c-0.063-0.154-0.095-0.317-0.095-0.49
						c0-0.173,0.032-0.337,0.095-0.49c0.062-0.154,0.147-0.287,0.257-0.4c0.111-0.113,0.24-0.204,0.386-0.27
						c0.147-0.068,0.303-0.102,0.47-0.102c0.167,0,0.323,0.033,0.47,0.102c0.145,0.067,0.273,0.157,0.383,0.27
						c0.11,0.113,0.197,0.247,0.26,0.4c0.064,0.153,0.094,0.317,0.094,0.49C165.414,8.766,165.384,8.929,165.32,9.082z"/>
					<path fill="#FFFFFF" d="M164.67,8.716c0.049-0.02,0.09-0.048,0.128-0.085c0.038-0.039,0.069-0.085,0.092-0.143
						c0.023-0.058,0.037-0.132,0.037-0.222c0-0.14-0.03-0.248-0.09-0.323c-0.06-0.077-0.13-0.133-0.21-0.169
						c-0.08-0.037-0.164-0.056-0.247-0.063c-0.083-0.005-0.15-0.008-0.196-0.008h-0.617v1.745h0.457V8.776h0.075l0.398,0.672h0.47
						l-0.447-0.693C164.57,8.747,164.62,8.734,164.67,8.716z M164.444,8.344c-0.018,0.025-0.04,0.045-0.066,0.057
						c-0.029,0.011-0.057,0.018-0.089,0.022c-0.032,0.003-0.06,0.005-0.088,0.005h-0.182V8.051h0.182
						c0.028,0,0.057,0.002,0.088,0.005c0.032,0.004,0.06,0.01,0.089,0.022c0.026,0.013,0.049,0.032,0.066,0.057
						c0.017,0.025,0.027,0.06,0.027,0.105C164.471,8.284,164.46,8.319,164.444,8.344z"/>
				</g>
				<g id="_x31_39c_1_">
					<path fill="#C88A12" d="M77.841,12.973V9.74c1.94,0.008,4.908,0.079,5.241,0.095l0.355,0.018V8.024l-0.366,0.03
						c-0.917,0.074-4.883,0.136-5.238,0.136h-1.69c-0.197,0-4.541-0.043-5.365-0.136l-0.375-0.04v1.831l0.348-0.01
						c0.576-0.018,2.85-0.09,5.248-0.096v2.925c0.001,3.073-0.023,8.792-0.075,9.227l-0.043,0.376h0.379h1.751l-0.036-0.37
						C77.939,21.557,77.839,16.903,77.841,12.973z"/>
					<path fill="#C88A12" d="M89.455,7.469l-0.096-0.174H89.12h-0.207l-0.094,0.183c-0.393,0.768-5.755,11.799-6.953,14.06
						l-0.157,0.293L82,21.992l1.403,0.777l0.155-0.326c0.288-0.614,1.758-3.905,2.213-4.806l6.786-0.236
						c0.494,0.912,2.258,4.353,2.637,5.042l0.168,0.307l1.702-1.013l-0.175-0.29C95.425,19.005,90.955,10.198,89.455,7.469z
						 M86.564,16.036c0.539-1.165,1.881-3.998,2.557-5.424c0.67,1.355,2.082,4.085,2.665,5.231L86.564,16.036z"/>
					<path fill="#C88A12" d="M110.421,8.243c-0.016,0.548-0.197,7.787-0.23,10.576c-2.269-2.695-9.239-10.437-10.069-11.442
						l-0.102-0.123h-0.2h-0.322l-0.015,0.323c-0.096,1.962-0.562,12.886-0.659,14.35l-0.023,0.344l0.345,0.017l1.631,0.075
						l-0.034-0.387c-0.002-0.004-0.002-0.073-0.002-0.161c0-1.297,0.208-8.088,0.263-10.771c2.5,2.987,9.46,10.617,10.154,11.485
						l0.1,0.127h0.202h0.329l0.008-0.33c0.117-4.867,0.467-12.819,0.544-13.992l0.023-0.344l-1.931-0.089L110.421,8.243z"/>
				</g>
				<g>
					<path fill="#FFFFFF" d="M16.215,19.036c-0.124,0.199-0.286,0.597-0.485,1.193h-0.429c-0.324,0-0.553-0.441-0.69-1.324
						c-0.062-0.448-0.093-0.914-0.093-1.399l-0.466-6.36c0.012,0-0.025-0.043-0.112-0.131c-0.721,1.331-1.443,2.667-2.163,4.01
						c-1.169,2.064-1.952,3.096-2.35,3.096c-0.585,0-1.132-0.485-1.641-1.455c-0.137-0.261-0.398-0.889-0.783-1.884
						c-0.298-0.907-0.678-2.052-1.138-3.432c-0.149,0.224-0.283,0.892-0.401,2.005c-0.118,1.113-0.177,2.247-0.177,3.404
						c0,0.87,0.037,1.585,0.112,2.145c-0.261,0.336-0.435,0.504-0.522,0.504c-0.236,0-0.429-0.28-0.578-0.839
						c-0.112-0.41-0.168-0.777-0.168-1.1v-1.697c0-0.895,0.127-2.276,0.382-4.141c0.255-1.865,0.382-3.127,0.382-3.786
						c0-0.273,0.105-0.497,0.317-0.671c0.211-0.174,0.441-0.261,0.69-0.261c0.161,0,0.351,0.065,0.569,0.196
						C6.687,7.24,6.808,7.392,6.834,7.566C6.871,8.25,6.976,9.27,7.15,10.625c0.199,0.92,0.497,2.002,0.895,3.245
						c0.547,1.716,0.957,2.543,1.231,2.481c0.721-0.907,1.287-1.772,1.697-2.592c0.435-0.696,1.063-1.834,1.884-3.413
						c0.472-1.069,0.789-1.884,0.951-2.443c0.099-0.373,0.174-0.851,0.224-1.436c0.05-0.435,0.124-0.715,0.224-0.839
						c0.137-0.186,0.416-0.28,0.839-0.28c0.087,0,0.255,0.118,0.504,0.354c-0.1,0.82-0.212,2.058-0.336,3.711
						c-0.025,1.492,0.105,3.314,0.392,5.465c0.037,0.435,0.131,1.209,0.28,2.322C16.084,18.312,16.178,18.924,16.215,19.036z"/>
					<path fill="#FFFFFF" d="M24.272,12.192c0,0.112-0.081,0.535-0.243,1.268c-0.174,0.821-0.267,1.25-0.28,1.287
						c-0.124,0.858-0.186,1.965-0.186,3.32c0.012,1.877-0.012,3.164-0.074,3.861c-0.075,1.293-0.274,2.437-0.597,3.432
						c-0.585,1.43-1.355,2.145-2.313,2.145c-1.828,0-2.922-0.883-3.282-2.648c-0.112-0.522-0.006-0.821,0.317-0.895
						c0.161,0,0.329,0.193,0.504,0.578c0.224,0.534,0.416,0.895,0.578,1.082c0.348,0.385,0.808,0.578,1.38,0.578
						c1.206,0,1.933-1.268,2.182-3.805c0.149-1.952,0.174-3.537,0.074-4.756c-0.473,0.734-0.808,1.219-1.007,1.455
						c-0.572,0.671-1.125,1.007-1.66,1.007c-0.659,0-1.219-0.46-1.678-1.38c-0.373-0.734-0.572-1.368-0.597-1.902
						c-0.1-1.504,0.037-2.785,0.41-3.842c0.273-0.808,0.578-1.212,0.914-1.212c0.062,0,0.177,0.025,0.345,0.075
						c0.168,0.05,0.252,0.404,0.252,1.063c-0.087,0.373-0.199,0.753-0.336,1.138c-0.199,0.547-0.298,1.038-0.298,1.473
						c-0.05,0.51-0.037,0.982,0.037,1.418c0.05,0.373,0.161,0.709,0.336,1.007c0.249,0.485,0.497,0.727,0.746,0.727
						c0.199,0,0.628-0.342,1.287-1.026c0.734-0.783,1.187-1.504,1.362-2.163c0.05-0.883,0.099-1.765,0.149-2.648
						c0.112-1.392,0.448-2.114,1.007-2.163c0.211-0.012,0.385,0.193,0.522,0.616C24.222,11.589,24.272,11.893,24.272,12.192z"/>
				</g>
			</g>
		</g>
		<g>
			<path fill="#FFFFFF" d="M48.713,36.048V28.82h0.363v6.899h3.557v0.329H48.713z"/>
			<path fill="#FFFFFF" d="M57.447,33.102l-0.249,0.249h-3.92c-0.113,1.325,0.872,2.481,2.3,2.481c0.6,0,1.099-0.181,1.484-0.453
				l-0.057,0.385c-0.351,0.25-0.804,0.386-1.45,0.386c-1.484,0-2.651-1.11-2.651-2.674c0-1.552,1.133-2.662,2.402-2.662
				c1.394,0,2.153,0.974,2.153,2.028C57.459,32.932,57.459,33.023,57.447,33.102z M55.318,31.12c-1.088,0-1.915,1.008-2.017,1.926
				h3.795c0.011-0.057,0.011-0.125,0.011-0.204C57.108,31.992,56.53,31.12,55.318,31.12z"/>
			<path fill="#FFFFFF" d="M61.141,31.222h-1.858v3.682c0,0.623,0.351,0.872,0.782,0.872c0.227,0,0.464-0.057,0.6-0.148l-0.057,0.34
				c-0.136,0.09-0.351,0.113-0.566,0.113c-0.623,0-1.099-0.386-1.099-1.167v-3.693h-1.031v-0.306h1.031v-1.201l0.34-0.181v1.382
				h1.96L61.141,31.222z"/>
			<path fill="#FFFFFF" d="M66.646,35.662c-0.702,1.7-1.45,2.538-2.572,2.991l-0.249-0.249c1.156-0.453,1.756-1.224,2.356-2.469
				l-2.096-5.019h0.363l1.292,3.082c0.204,0.487,0.43,1.042,0.6,1.552h0.023c0.181-0.476,0.453-1.121,0.635-1.552l1.28-3.082h0.34
				L66.646,35.662z"/>
			<path fill="#FFFFFF" d="M71.778,36.15c-1.53,0-2.674-1.133-2.674-2.662c0-1.529,1.144-2.674,2.674-2.674
				c1.529,0,2.685,1.144,2.685,2.674C74.463,35.017,73.307,36.15,71.778,36.15z M71.778,31.131c-1.326,0-2.323,1.008-2.323,2.356
				c0,1.348,0.997,2.357,2.323,2.357c1.325,0,2.334-1.008,2.334-2.357C74.112,32.139,73.103,31.131,71.778,31.131z"/>
			<path fill="#FFFFFF" d="M79.096,36.048v-0.884h-0.011c-0.102,0.487-0.702,0.986-1.767,0.986c-1.122,0-1.971-0.623-1.971-1.722
				v-3.512h0.351v3.489c0,0.929,0.68,1.439,1.654,1.439c0.963,0,1.733-0.51,1.733-1.439v-3.489h0.351v5.132H79.096z"/>
			<path fill="#FFFFFF" d="M83.05,31.267c-0.102-0.034-0.272-0.057-0.408-0.057c-0.94,0-1.688,0.748-1.688,2.21v2.628h-0.351v-5.132
				h0.351v1.314h0.011c0.102-0.702,0.714-1.382,1.688-1.382c0.136,0,0.34,0.011,0.487,0.057L83.05,31.267z"/>
			<path fill="#FFFFFF" d="M84.636,36.093c-0.634,0-1.076-0.192-1.393-0.453l-0.079-0.442c0.397,0.374,0.861,0.589,1.473,0.589
				c0.668,0,1.257-0.34,1.257-1.019c0-0.612-0.487-0.986-1.178-1.224c-0.85-0.294-1.348-0.657-1.348-1.45
				c0-0.759,0.601-1.224,1.394-1.224c0.51,0,0.951,0.17,1.167,0.329l-0.113,0.317c-0.215-0.17-0.612-0.34-1.054-0.34
				c-0.601,0-1.054,0.352-1.054,0.906c0,0.635,0.419,0.895,1.042,1.11c0.906,0.317,1.496,0.759,1.496,1.563
				C86.245,35.628,85.531,36.093,84.636,36.093z"/>
			<path fill="#FFFFFF" d="M91.354,33.102l-0.249,0.249h-3.92c-0.113,1.325,0.872,2.481,2.3,2.481c0.6,0,1.099-0.181,1.484-0.453
				l-0.057,0.385c-0.351,0.25-0.804,0.386-1.45,0.386c-1.484,0-2.651-1.11-2.651-2.674c0-1.552,1.133-2.662,2.402-2.662
				c1.393,0,2.152,0.974,2.152,2.028C91.365,32.932,91.365,33.023,91.354,33.102z M89.224,31.12c-1.087,0-1.914,1.008-2.016,1.926
				h3.795c0.011-0.057,0.011-0.125,0.011-0.204C91.014,31.992,90.436,31.12,89.224,31.12z"/>
			<path fill="#FFFFFF" d="M93.042,36.184c-0.464-0.159-0.725-0.51-0.725-1.156v-7.047h0.351v7.035c0,0.51,0.215,0.804,0.612,0.918
				L93.042,36.184z"/>
			<path fill="#FFFFFF" d="M97.347,28.435c-0.159-0.068-0.487-0.147-0.748-0.147c-0.94,0-1.676,0.521-1.676,1.744v0.884h1.824
				l-0.079,0.306h-1.744v4.826h-0.351v-4.826h-0.963v-0.306h0.963v-0.895c0-1.416,0.872-2.039,2.017-2.039
				c0.34,0,0.657,0.057,0.85,0.136L97.347,28.435z"/>
			<path fill="#FFFFFF" d="M101.3,36.093c-0.635,0-1.076-0.192-1.394-0.453l-0.079-0.442c0.396,0.374,0.861,0.589,1.473,0.589
				c0.669,0,1.257-0.34,1.257-1.019c0-0.612-0.487-0.986-1.178-1.224c-0.85-0.294-1.348-0.657-1.348-1.45
				c0-0.759,0.6-1.224,1.393-1.224c0.51,0,0.952,0.17,1.167,0.329l-0.113,0.317c-0.215-0.17-0.612-0.34-1.054-0.34
				c-0.6,0-1.053,0.352-1.053,0.906c0,0.635,0.419,0.895,1.042,1.11c0.906,0.317,1.495,0.759,1.495,1.563
				C102.909,35.628,102.195,36.093,101.3,36.093z"/>
			<path fill="#FFFFFF" d="M107.599,36.048v-3.49c0-0.929-0.691-1.439-1.665-1.439c-0.963,0-1.722,0.51-1.722,1.439v3.49h-0.351
				v-8.066h0.351v3.807h0.011c0.09-0.498,0.714-0.974,1.744-0.974c1.156,0,1.983,0.623,1.983,1.722v3.512H107.599z"/>
			<path fill="#FFFFFF" d="M109.457,29.862c-0.102,0-0.34-0.249-0.34-0.351c0-0.102,0.238-0.34,0.34-0.34
				c0.102,0,0.351,0.238,0.351,0.34C109.808,29.613,109.559,29.862,109.457,29.862z M109.287,36.048v-5.132h0.351v5.132H109.287z"/>
			<path fill="#FFFFFF" d="M114.713,36.048v-3.49c0-0.929-0.691-1.439-1.665-1.439c-0.963,0-1.722,0.51-1.722,1.439v3.49h-0.351
				v-5.132h0.34V31.8h0.011c0.102-0.488,0.691-0.986,1.756-0.986c1.121,0,1.983,0.623,1.983,1.722v3.512H114.713z"/>
			<path fill="#FFFFFF" d="M120.491,33.102l-0.249,0.249h-3.92c-0.113,1.325,0.872,2.481,2.3,2.481c0.6,0,1.099-0.181,1.484-0.453
				l-0.057,0.385c-0.351,0.25-0.804,0.386-1.45,0.386c-1.484,0-2.651-1.11-2.651-2.674c0-1.552,1.133-2.662,2.402-2.662
				c1.393,0,2.152,0.974,2.152,2.028C120.502,32.932,120.502,33.023,120.491,33.102z M118.361,31.12
				c-1.087,0-1.914,1.008-2.016,1.926h3.795c0.011-0.057,0.011-0.125,0.011-0.204C120.151,31.992,119.573,31.12,118.361,31.12z"/>
			<path fill="#FFFFFF" d="M121.658,36.138c-0.124,0-0.396-0.272-0.396-0.396c0-0.125,0.272-0.386,0.396-0.386
				c0.125,0,0.397,0.261,0.397,0.386C122.054,35.866,121.782,36.138,121.658,36.138z"/>
			<path fill="#FFFFFF" d="M123.747,31.448c-0.614,0-1.13-0.463-1.13-1.117c0-0.654,0.515-1.123,1.13-1.123
				c0.634,0,1.13,0.469,1.13,1.123C124.877,30.985,124.382,31.448,123.747,31.448z M123.747,29.347
				c-0.561,0-0.984,0.403-0.984,0.984c0,0.594,0.423,0.984,0.984,0.984c0.568,0,0.984-0.39,0.984-0.984
				C124.732,29.75,124.316,29.347,123.747,29.347z M124.183,30.992l-0.416-0.574h-0.224v0.594h-0.145v-1.341h0.37
				c0.245,0,0.403,0.172,0.403,0.37c0,0.159-0.106,0.284-0.245,0.344l0.383,0.535L124.183,30.992z M123.76,29.809h-0.218v0.469
				h0.218c0.152,0,0.264-0.106,0.264-0.238S123.913,29.809,123.76,29.809z"/>
		</g>
	</g>
</g>
</svg>
