<?xml version="1.0" encoding="utf-8"?>
<!-- Generator: Adobe Illustrator 17.0.0, SVG Export Plug-In . SVG Version: 6.00 Build 0)  -->
<!DOCTYPE svg PUBLIC "-//W3C//DTD SVG 1.1//EN" "http://www.w3.org/Graphics/SVG/1.1/DTD/svg11.dtd">
<svg version="1.1" id="Layer_1" xmlns="http://www.w3.org/2000/svg" xmlns:xlink="http://www.w3.org/1999/xlink" x="0px" y="0px"
	 width="220px" height="50px" viewBox="0 0 220 50" enable-background="new 0 0 220 50" xml:space="preserve">
<g id="STC_x5F_LOGO">
	<g>
		<g id="LOGO_1_">
			<g id="WHITE_1_">
				<path fill="#FFFFFF" d="M40.595,14.975c-0.841-0.45-1.633-0.849-2.176-1.286c-0.548-0.446-0.825-0.86-0.831-1.457
					c-0.015-0.841,0.72-1.73,1.788-2.433c1.052-0.7,2.377-1.196,3.273-1.358l0.477-0.088l-0.629-2.259l-0.42,0.109
					c-3.382,0.89-6.94,3.321-7.004,6.384c0.02,1.94,1.638,3.04,3.572,4.06c2.263,1.205,2.831,1.681,2.843,2.916
					c0.097,1.929-3.145,3.615-5.385,4.101l-0.481,0.112l0.164,0.466l0.595,1.685l0.397-0.107c4.629-1.249,7.255-3.957,7.277-6.714
					C44.057,17.165,42.7,16.127,40.595,14.975z"/>
				<path fill="#FFFFFF" d="M62.919,6.391h-2.565l0.024,0.466c0.051,0.944,0.153,2.438,0.153,4.178v0.89
					c0.009,4.658-0.128,7.382-1.136,9.067c-0.805,1.363-2.046,2.518-4.43,2.53c-2.044-0.014-3.439-0.92-4.418-2.812
					c-0.879-1.699-1.05-4.108-1.046-7.589v-1.73c0-2.306,0.077-3.49,0.151-4.124l0.057-0.494h-2.621v0.443
					c0,0.578-0.024,2.441-0.026,3.613l0.002,1.378c-0.005,6.232,0.406,8.305,1.697,10.343c1.88,2.922,4.613,3.211,6.023,3.211
					c0.026,0,0.052,0,0.078-0.001c2.217,0.006,4.654-0.846,6.248-3.199c1.672-2.414,1.829-5.369,1.833-10.305v-1.171
					c0-2.012-0.025-3.697-0.025-4.251V6.391z"/>
				<path fill="#FFFFFF" d="M81.301,6.972c-0.022,0.72-0.258,10.202-0.3,13.858C78.023,17.297,68.892,7.156,67.805,5.839
					l-0.134-0.161h-0.259H66.99l-0.02,0.421c-0.128,2.573-0.738,16.887-0.866,18.806l-0.031,0.452l0.452,0.02l2.134,0.097
					l-0.042-0.503c-0.001-0.009-0.003-0.095-0.003-0.207c0-1.676,0.275-10.599,0.346-14.122
					c3.275,3.915,12.395,13.911,13.306,15.051l0.133,0.166h0.262h0.431l0.012-0.432c0.152-6.379,0.611-16.801,0.713-18.337
					l0.029-0.45l-2.531-0.118L81.301,6.972z"/>
				<path fill="#FFFFFF" d="M167.071,23.152l-0.47,0.101c-0.896,0.196-2.101,0.296-3.087,0.296c-6.266-0.035-8.52-3.174-8.545-6.152
					c-0.033-4.135,4.554-8.005,10.762-8.775l0.466-0.057l-0.444-2.403l-0.435,0.082c-8.741,1.622-12.959,6.854-12.965,11.536
					c0.003,1.426,0.637,3.409,2.33,5.06c1.689,1.648,4.431,2.919,8.555,2.919c0.008,0,0.015,0,0.021,0
					c1.551,0,2.884-0.103,3.701-0.266l0.406-0.081l-0.054-0.411L167.071,23.152z"/>
				<path fill="#FFFFFF" d="M170.2,7.122c0.047,0.552,0.099,6.884,0.099,7.298v2.748c0,0.654-0.027,6.631-0.078,7.72l-0.02,0.463
					h0.464h2.14l-0.019-0.463c-0.025-0.559-0.076-5.134-0.075-7.67l-0.001-2.746c0-3.035,0.054-6.957,0.099-7.336l0.056-0.493
					h-2.704L170.2,7.122z"/>
				<path fill="#FFFFFF" d="M184.641,6.901h-2.216c-0.258,0.002-5.954-0.056-7.03-0.175l-0.492-0.055v2.401l0.457-0.013
					c0.753-0.022,3.734-0.118,6.874-0.126v3.834c0.002,4.026-0.025,11.522-0.097,12.089l-0.059,0.495h0.499h2.299l-0.05-0.489
					c-0.048-0.442-0.178-6.542-0.177-11.692V8.933c2.544,0.01,6.428,0.103,6.866,0.126l0.466,0.022V6.685l-0.479,0.04
					C190.301,6.822,185.106,6.903,184.641,6.901z"/>
				<path fill="#FFFFFF" d="M208.918,6.259c-1.698,0.557-3.84,2.096-5.078,3.431c-1.191,1.291-2.165,2.702-2.827,4.573
					c-0.7-2.154-1.895-3.711-2.958-4.898c-0.711-0.792-2.399-2.221-4.103-3.081l-0.392-0.195l-1.1,2.124l0.424,0.194
					c1.327,0.604,2.642,1.639,3.672,2.792c1.918,2.143,3.12,4.935,3.122,8.187v1.906c0,0.314-0.054,3.031-0.077,3.599l-0.021,0.461
					h0.462h2.196l-0.049-0.488c-0.048-0.456-0.099-2.755-0.099-3.085v-2.393c0.003-2.648,0.924-5.236,2.852-7.587
					c1.347-1.645,3.094-2.844,4.748-3.344l0.453-0.137l-0.825-2.188L208.918,6.259z"/>
				<path fill="#FFFFFF" d="M215.333,5.892c-0.196-0.199-0.428-0.354-0.69-0.47c-0.267-0.116-0.546-0.173-0.848-0.173
					c-0.302,0-0.586,0.057-0.848,0.173c-0.264,0.116-0.496,0.271-0.692,0.47c-0.199,0.197-0.354,0.428-0.47,0.69
					c-0.114,0.264-0.172,0.546-0.172,0.848c0,0.302,0.058,0.583,0.172,0.848c0.116,0.264,0.271,0.493,0.47,0.692
					c0.196,0.197,0.428,0.354,0.692,0.467c0.262,0.116,0.546,0.175,0.848,0.175c0.302,0,0.581-0.059,0.848-0.175
					c0.261-0.113,0.493-0.271,0.69-0.467c0.197-0.199,0.354-0.428,0.467-0.692c0.119-0.265,0.176-0.546,0.176-0.848
					c0-0.302-0.057-0.583-0.176-0.848C215.687,6.321,215.53,6.089,215.333,5.892z M215.254,8.072
					c-0.083,0.201-0.197,0.376-0.341,0.524c-0.144,0.149-0.312,0.266-0.502,0.356c-0.193,0.088-0.397,0.131-0.616,0.131
					c-0.218,0-0.424-0.043-0.616-0.131c-0.192-0.09-0.36-0.207-0.506-0.356c-0.144-0.149-0.256-0.323-0.337-0.524
					c-0.083-0.201-0.125-0.415-0.125-0.642c0-0.227,0.042-0.441,0.125-0.642c0.081-0.201,0.192-0.376,0.337-0.524
					c0.146-0.149,0.314-0.267,0.506-0.354c0.193-0.09,0.398-0.133,0.616-0.133c0.219,0,0.424,0.044,0.616,0.133
					c0.191,0.087,0.358,0.206,0.502,0.354c0.144,0.148,0.258,0.323,0.341,0.524c0.083,0.201,0.123,0.415,0.123,0.642
					C215.377,7.657,215.338,7.871,215.254,8.072z"/>
				<path fill="#FFFFFF" d="M214.403,7.592c0.064-0.026,0.118-0.063,0.168-0.111c0.05-0.05,0.09-0.112,0.121-0.188
					c0.03-0.077,0.048-0.173,0.048-0.291c0-0.183-0.039-0.325-0.119-0.424c-0.078-0.101-0.17-0.175-0.275-0.221
					c-0.105-0.048-0.214-0.074-0.324-0.083c-0.109-0.006-0.196-0.011-0.257-0.011h-0.809v2.287h0.599v-0.88h0.098l0.522,0.88h0.616
					l-0.586-0.909C214.271,7.633,214.337,7.616,214.403,7.592z M214.105,7.105c-0.023,0.033-0.053,0.059-0.087,0.075
					c-0.038,0.015-0.075,0.024-0.116,0.028c-0.041,0.004-0.079,0.006-0.116,0.006h-0.238V6.72h0.238
					c0.037,0,0.075,0.002,0.116,0.006c0.041,0.005,0.078,0.013,0.116,0.028c0.034,0.018,0.064,0.041,0.087,0.074
					c0.022,0.033,0.035,0.079,0.035,0.137C214.141,7.026,214.127,7.072,214.105,7.105z"/>
			</g>
			<g id="_x31_39c_1_">
				<path fill="#C88A12" d="M100.618,13.171V8.934c2.543,0.01,6.432,0.104,6.868,0.124l0.465,0.024V6.686l-0.479,0.039
					c-1.202,0.098-6.399,0.178-6.864,0.178h-2.214c-0.258,0-5.951-0.057-7.03-0.178l-0.491-0.052v2.4l0.456-0.013
					c0.755-0.024,3.735-0.118,6.877-0.126v3.833c0.002,4.027-0.031,11.521-0.099,12.092L98.05,25.35h0.497h2.295l-0.048-0.485
					C100.748,24.419,100.617,18.321,100.618,13.171z"/>
				<path fill="#C88A12" d="M115.838,5.958l-0.126-0.229h-0.312h-0.271l-0.124,0.24c-0.515,1.007-7.541,15.462-9.112,18.425
					l-0.206,0.384l0.382,0.211l1.839,1.018l0.203-0.428c0.377-0.805,2.303-5.117,2.9-6.298l8.892-0.31
					c0.647,1.195,2.959,5.704,3.456,6.608l0.22,0.402l2.23-1.327l-0.229-0.38C123.662,21.075,117.804,9.534,115.838,5.958z
					 M112.05,17.184c0.707-1.526,2.465-5.239,3.351-7.108c0.878,1.776,2.728,5.354,3.493,6.855L112.05,17.184z"/>
				<path fill="#C88A12" d="M143.312,6.973c-0.021,0.719-0.258,10.205-0.301,13.859c-2.973-3.531-12.107-13.676-13.195-14.993
					l-0.133-0.161h-0.262h-0.422l-0.02,0.423c-0.126,2.571-0.737,16.886-0.864,18.804l-0.031,0.45l0.453,0.022l2.137,0.098
					l-0.045-0.507c-0.002-0.006-0.003-0.095-0.003-0.211c0-1.699,0.273-10.599,0.344-14.114
					c3.275,3.915,12.396,13.913,13.306,15.051l0.131,0.167h0.265h0.431l0.01-0.433c0.154-6.378,0.613-16.798,0.713-18.336l0.03-0.45
					l-2.53-0.117L143.312,6.973z"/>
			</g>
			<g>
				<path fill="#FFFFFF" d="M19.862,21.116c-0.163,0.261-0.375,0.782-0.636,1.564h-0.562c-0.424,0-0.725-0.578-0.904-1.735
					c-0.082-0.587-0.122-1.198-0.122-1.833l-0.611-8.334c0.016,0-0.033-0.057-0.147-0.171c-0.945,1.744-1.89,3.495-2.835,5.255
					c-1.532,2.705-2.558,4.057-3.079,4.057c-0.766,0-1.483-0.636-2.151-1.906c-0.179-0.342-0.522-1.165-1.026-2.468
					c-0.391-1.189-0.888-2.689-1.491-4.497c-0.195,0.293-0.371,1.169-0.525,2.627c-0.155,1.458-0.232,2.945-0.232,4.46
					c0,1.141,0.049,2.078,0.147,2.811c-0.342,0.44-0.57,0.66-0.684,0.66c-0.31,0-0.562-0.367-0.758-1.1
					c-0.147-0.538-0.22-1.018-0.22-1.442v-2.224c0-1.173,0.167-2.982,0.501-5.426c0.334-2.444,0.501-4.097,0.501-4.961
					c0-0.358,0.138-0.651,0.416-0.88C5.719,5.344,6.02,5.23,6.346,5.23c0.212,0,0.46,0.085,0.746,0.257
					c0.285,0.171,0.444,0.371,0.477,0.599c0.049,0.896,0.187,2.232,0.415,4.008c0.26,1.206,0.652,2.623,1.173,4.252
					c0.717,2.248,1.255,3.332,1.613,3.251c0.945-1.189,1.686-2.322,2.224-3.397c0.57-0.912,1.393-2.403,2.469-4.473
					c0.619-1.401,1.034-2.468,1.246-3.202c0.13-0.489,0.228-1.116,0.293-1.882c0.065-0.57,0.163-0.937,0.293-1.1
					c0.179-0.244,0.546-0.367,1.1-0.367c0.114,0,0.334,0.155,0.66,0.464c-0.13,1.075-0.277,2.697-0.44,4.863
					c-0.033,1.955,0.138,4.342,0.513,7.161c0.049,0.571,0.171,1.585,0.367,3.043C19.691,20.167,19.813,20.97,19.862,21.116z"/>
				<path fill="#FFFFFF" d="M30.42,12.147c0,0.146-0.106,0.701-0.318,1.662c-0.228,1.075-0.351,1.637-0.367,1.686
					c-0.163,1.124-0.244,2.575-0.244,4.35c0.016,2.46-0.016,4.147-0.098,5.059c-0.098,1.694-0.359,3.193-0.782,4.497
					c-0.766,1.874-1.776,2.811-3.031,2.811c-2.395,0-3.829-1.157-4.301-3.471c-0.147-0.684-0.008-1.075,0.416-1.173
					c0.211,0,0.432,0.252,0.66,0.758c0.293,0.7,0.546,1.173,0.757,1.418c0.456,0.505,1.059,0.757,1.809,0.757
					c1.58,0,2.533-1.662,2.86-4.986c0.195-2.558,0.228-4.635,0.098-6.232c-0.619,0.962-1.059,1.597-1.32,1.906
					c-0.75,0.88-1.475,1.32-2.175,1.32c-0.864,0-1.597-0.603-2.199-1.809c-0.489-0.961-0.75-1.792-0.782-2.493
					c-0.13-1.971,0.049-3.65,0.538-5.035c0.358-1.059,0.758-1.589,1.198-1.589c0.081,0,0.232,0.033,0.452,0.098
					c0.22,0.065,0.33,0.53,0.33,1.393c-0.114,0.489-0.261,0.986-0.44,1.491c-0.261,0.717-0.391,1.361-0.391,1.931
					c-0.065,0.668-0.049,1.287,0.049,1.858c0.065,0.489,0.211,0.929,0.44,1.32c0.326,0.635,0.652,0.953,0.978,0.953
					c0.26,0,0.823-0.448,1.686-1.344c0.961-1.026,1.556-1.971,1.784-2.835c0.065-1.157,0.13-2.313,0.195-3.471
					c0.147-1.825,0.587-2.77,1.32-2.835c0.277-0.016,0.505,0.253,0.684,0.807C30.354,11.357,30.42,11.756,30.42,12.147z"/>
			</g>
		</g>
	</g>
	<g>
		<path fill="#FFFFFF" d="M62.448,43.409v-9.472h0.475v9.041h4.662v0.431H62.448z"/>
		<path fill="#FFFFFF" d="M73.894,39.549l-0.326,0.327h-5.137c-0.149,1.737,1.143,3.251,3.014,3.251c0.787,0,1.44-0.237,1.945-0.593
			l-0.074,0.504c-0.46,0.327-1.054,0.505-1.9,0.505c-1.945,0-3.474-1.455-3.474-3.504c0-2.034,1.485-3.489,3.147-3.489
			c1.826,0,2.821,1.277,2.821,2.658C73.909,39.326,73.909,39.445,73.894,39.549z M71.104,36.95c-1.425,0-2.509,1.321-2.643,2.524
			h4.973c0.015-0.075,0.015-0.164,0.015-0.267C73.449,38.094,72.692,36.95,71.104,36.95z"/>
		<path fill="#FFFFFF" d="M78.734,37.085h-2.435v4.825c0,0.816,0.46,1.143,1.024,1.143c0.297,0,0.609-0.075,0.787-0.194
			l-0.074,0.446c-0.178,0.119-0.46,0.149-0.742,0.149c-0.817,0-1.44-0.505-1.44-1.53v-4.839h-1.351v-0.401h1.351V35.11l0.445-0.238
			v1.811h2.568L78.734,37.085z"/>
		<path fill="#FFFFFF" d="M85.948,42.903c-0.92,2.227-1.9,3.326-3.37,3.92l-0.327-0.327c1.514-0.594,2.301-1.604,3.088-3.236
			l-2.747-6.577h0.475l1.693,4.038c0.267,0.638,0.564,1.366,0.787,2.034h0.03c0.238-0.623,0.594-1.469,0.832-2.034l1.678-4.038
			h0.445L85.948,42.903z"/>
		<path fill="#FFFFFF" d="M92.674,43.542c-2.004,0-3.504-1.485-3.504-3.489c0-2.004,1.499-3.504,3.504-3.504
			c2.004,0,3.518,1.5,3.518,3.504C96.192,42.057,94.678,43.542,92.674,43.542z M92.674,36.965c-1.737,0-3.044,1.321-3.044,3.088
			c0,1.767,1.306,3.088,3.044,3.088c1.737,0,3.058-1.321,3.058-3.088C95.731,38.287,94.41,36.965,92.674,36.965z"/>
		<path fill="#FFFFFF" d="M102.264,43.409V42.25h-0.015c-0.134,0.638-0.92,1.292-2.316,1.292c-1.47,0-2.583-0.817-2.583-2.256
			v-4.603h0.46v4.572c0,1.217,0.891,1.886,2.167,1.886c1.262,0,2.271-0.668,2.271-1.886v-4.572h0.46v6.725H102.264z"/>
		<path fill="#FFFFFF" d="M107.445,37.144c-0.134-0.045-0.356-0.075-0.534-0.075c-1.232,0-2.212,0.98-2.212,2.895v3.444h-0.46
			v-6.725h0.46v1.722h0.015c0.134-0.92,0.935-1.811,2.212-1.811c0.178,0,0.446,0.015,0.638,0.074L107.445,37.144z"/>
		<path fill="#FFFFFF" d="M109.523,43.468c-0.831,0-1.41-0.252-1.826-0.593l-0.104-0.579c0.52,0.49,1.128,0.772,1.93,0.772
			c0.876,0,1.648-0.445,1.648-1.336c0-0.802-0.638-1.292-1.544-1.604c-1.113-0.386-1.767-0.861-1.767-1.9
			c0-0.995,0.787-1.604,1.826-1.604c0.668,0,1.247,0.223,1.529,0.431l-0.148,0.416c-0.282-0.223-0.802-0.446-1.381-0.446
			c-0.787,0-1.381,0.461-1.381,1.188c0,0.832,0.549,1.173,1.366,1.455c1.188,0.416,1.96,0.995,1.96,2.049
			C111.632,42.859,110.696,43.468,109.523,43.468z"/>
		<path fill="#FFFFFF" d="M118.327,39.549L118,39.875h-5.137c-0.148,1.737,1.143,3.251,3.014,3.251c0.786,0,1.44-0.237,1.945-0.593
			l-0.075,0.504c-0.46,0.327-1.054,0.505-1.9,0.505c-1.944,0-3.474-1.455-3.474-3.504c0-2.034,1.485-3.489,3.148-3.489
			c1.826,0,2.82,1.277,2.82,2.658C118.341,39.326,118.341,39.445,118.327,39.549z M115.535,36.95c-1.425,0-2.509,1.321-2.642,2.524
			h4.973c0.014-0.075,0.014-0.164,0.014-0.267C117.881,38.094,117.124,36.95,115.535,36.95z"/>
		<path fill="#FFFFFF" d="M120.538,43.587c-0.608-0.208-0.95-0.668-0.95-1.514v-9.234h0.46v9.219c0,0.668,0.282,1.054,0.802,1.203
			L120.538,43.587z"/>
		<path fill="#FFFFFF" d="M126.18,33.432c-0.208-0.089-0.638-0.193-0.98-0.193c-1.232,0-2.197,0.682-2.197,2.285v1.158h2.39
			l-0.104,0.401h-2.286v6.324h-0.46v-6.324h-1.262v-0.401h1.262v-1.173c0-1.856,1.143-2.672,2.643-2.672
			c0.445,0,0.861,0.074,1.113,0.178L126.18,33.432z"/>
		<path fill="#FFFFFF" d="M131.361,43.468c-0.832,0-1.41-0.252-1.826-0.593l-0.104-0.579c0.519,0.49,1.128,0.772,1.93,0.772
			c0.876,0,1.648-0.445,1.648-1.336c0-0.802-0.638-1.292-1.544-1.604c-1.114-0.386-1.767-0.861-1.767-1.9
			c0-0.995,0.786-1.604,1.826-1.604c0.668,0,1.247,0.223,1.529,0.431l-0.149,0.416c-0.282-0.223-0.802-0.446-1.381-0.446
			c-0.786,0-1.38,0.461-1.38,1.188c0,0.832,0.549,1.173,1.366,1.455c1.187,0.416,1.959,0.995,1.959,2.049
			C133.468,42.859,132.533,43.468,131.361,43.468z"/>
		<path fill="#FFFFFF" d="M139.614,43.409v-4.573c0-1.217-0.906-1.885-2.182-1.885c-1.262,0-2.256,0.668-2.256,1.885v4.573h-0.46
			v-10.57h0.46v4.988h0.015c0.119-0.653,0.935-1.277,2.286-1.277c1.515,0,2.598,0.817,2.598,2.256v4.603H139.614z"/>
		<path fill="#FFFFFF" d="M142.049,35.302c-0.134,0-0.445-0.326-0.445-0.46c0-0.134,0.312-0.445,0.445-0.445
			c0.134,0,0.46,0.312,0.46,0.445C142.509,34.976,142.182,35.302,142.049,35.302z M141.826,43.409v-6.725h0.46v6.725H141.826z"/>
		<path fill="#FFFFFF" d="M148.937,43.409v-4.573c0-1.217-0.906-1.885-2.182-1.885c-1.262,0-2.256,0.668-2.256,1.885v4.573h-0.46
			v-6.725h0.445v1.158h0.015c0.134-0.639,0.906-1.292,2.301-1.292c1.469,0,2.598,0.817,2.598,2.256v4.603H148.937z"/>
		<path fill="#FFFFFF" d="M156.509,39.549l-0.327,0.327h-5.137c-0.148,1.737,1.143,3.251,3.014,3.251
			c0.786,0,1.44-0.237,1.945-0.593l-0.075,0.504c-0.46,0.327-1.054,0.505-1.9,0.505c-1.945,0-3.474-1.455-3.474-3.504
			c0-2.034,1.484-3.489,3.148-3.489c1.826,0,2.82,1.277,2.82,2.658C156.523,39.326,156.523,39.445,156.509,39.549z M153.717,36.95
			c-1.425,0-2.509,1.321-2.642,2.524h4.973c0.015-0.075,0.015-0.164,0.015-0.267C156.063,38.094,155.306,36.95,153.717,36.95z"/>
		<path fill="#FFFFFF" d="M158.037,43.527c-0.163,0-0.519-0.356-0.519-0.519c0-0.164,0.356-0.505,0.519-0.505
			c0.164,0,0.52,0.342,0.52,0.505C158.557,43.171,158.201,43.527,158.037,43.527z"/>
		<path fill="#FFFFFF" d="M160.776,37.381c-0.805,0-1.48-0.606-1.48-1.463s0.675-1.472,1.48-1.472c0.831,0,1.48,0.615,1.48,1.472
			S161.607,37.381,160.776,37.381z M160.776,34.628c-0.736,0-1.29,0.528-1.29,1.29c0,0.779,0.554,1.29,1.29,1.29
			c0.745,0,1.29-0.511,1.29-1.29C162.066,35.155,161.52,34.628,160.776,34.628z M161.347,36.783l-0.545-0.753h-0.294v0.779h-0.191
			v-1.757h0.485c0.321,0,0.528,0.225,0.528,0.485c0,0.208-0.139,0.372-0.321,0.45l0.502,0.701L161.347,36.783z M160.793,35.234
			h-0.285v0.615h0.285c0.199,0,0.346-0.139,0.346-0.312S160.992,35.234,160.793,35.234z"/>
	</g>
</g>
</svg>
