<?xml version="1.0" encoding="utf-8"?>
<!-- Generator: Adobe Illustrator 17.0.0, SVG Export Plug-In . SVG Version: 6.00 Build 0)  -->
<!DOCTYPE svg PUBLIC "-//W3C//DTD SVG 1.1//EN" "http://www.w3.org/Graphics/SVG/1.1/DTD/svg11.dtd">
<svg version="1.1" xmlns="http://www.w3.org/2000/svg" xmlns:xlink="http://www.w3.org/1999/xlink" x="0px" y="0px" width="200px"
	 height="150px" viewBox="0 0 200 150" enable-background="new 0 0 200 150" xml:space="preserve">
<g id="Base" display="none">
	<rect display="inline" fill="#1A1A1A" width="200" height="100"/>
</g>
<g id="Icons">
	<g>
		
			<polyline fill="none" stroke="#FFFFFF" stroke-width="2" stroke-linecap="round" stroke-linejoin="round" stroke-miterlimit="10" points="
			27.528,29.502 32.834,29.502 37.281,38.636 12.719,38.636 16.613,29.502 22.475,29.502 		"/>
		<path fill="none" stroke="#FFFFFF" stroke-width="2" stroke-miterlimit="10" d="M17.266,19.097c0-4.271,3.463-7.733,7.734-7.733
			c4.271,0,7.733,3.462,7.733,7.733c0,5.805-7.733,12.109-7.733,14.998C25.033,31.241,17.266,24.902,17.266,19.097z"/>
		<circle fill="none" stroke="#FFFFFF" stroke-width="2" stroke-miterlimit="10" cx="25" cy="19.321" r="1.577"/>
	</g>
	<g>
		
			<polyline fill="none" stroke="#FFFFFF" stroke-width="2" stroke-linecap="round" stroke-linejoin="round" stroke-miterlimit="10" points="
			112.124,10.975 137.876,8.399 137.568,38.142 134.16,37.476 		"/>
		
			<polygon fill="none" stroke="#FFFFFF" stroke-width="2" stroke-linecap="round" stroke-linejoin="round" stroke-miterlimit="10" points="
			134.16,41.601 112.124,37.295 112.124,10.975 134.16,14.178 		"/>
	</g>
	<path fill="none" stroke="#FFFFFF" stroke-width="2" stroke-linecap="round" stroke-linejoin="round" stroke-miterlimit="10" d="
		M182.834,29.891c-1.19,0-2.027,0-3.726,0v-2.865c2.628-1.684,3.007-5.105,3.007-8.217c0-4.326-2.788-7.834-7.114-7.834
		c-4.328,0-7.116,3.508-7.116,7.834c0,3.268,0.566,6.877,3.409,8.453v2.629c-2.091,0-3.301,0-4.681,0
		c-3.903,0-3.895,9.135-3.895,9.135h24.562C187.281,39.025,186.892,29.891,182.834,29.891z"/>
	<g>
		<circle fill="none" stroke="#FFFFFF" stroke-width="2" stroke-miterlimit="10" cx="74.999" cy="24.999" r="9.239"/>
		
			<line fill="none" stroke="#FFFFFF" stroke-width="2" stroke-linecap="round" stroke-linejoin="round" stroke-miterlimit="10" x1="74.916" y1="7.55" x2="74.916" y2="11.425"/>
		
			<line fill="none" stroke="#FFFFFF" stroke-width="2" stroke-linecap="round" stroke-linejoin="round" stroke-miterlimit="10" x1="62.602" y1="12.719" x2="65.342" y2="15.46"/>
		
			<line fill="none" stroke="#FFFFFF" stroke-width="2" stroke-linecap="round" stroke-linejoin="round" stroke-miterlimit="10" x1="57.549" y1="25.083" x2="61.425" y2="25.082"/>
		
			<line fill="none" stroke="#FFFFFF" stroke-width="2" stroke-linecap="round" stroke-linejoin="round" stroke-miterlimit="10" x1="62.719" y1="37.397" x2="65.46" y2="34.657"/>
		
			<line fill="none" stroke="#FFFFFF" stroke-width="2" stroke-linecap="round" stroke-linejoin="round" stroke-miterlimit="10" x1="75.082" y1="42.45" x2="75.081" y2="38.574"/>
		
			<line fill="none" stroke="#FFFFFF" stroke-width="2" stroke-linecap="round" stroke-linejoin="round" stroke-miterlimit="10" x1="87.398" y1="37.281" x2="84.657" y2="34.54"/>
		
			<line fill="none" stroke="#FFFFFF" stroke-width="2" stroke-linecap="round" stroke-linejoin="round" stroke-miterlimit="10" x1="92.451" y1="24.916" x2="88.575" y2="24.917"/>
		
			<line fill="none" stroke="#FFFFFF" stroke-width="2" stroke-linecap="round" stroke-linejoin="round" stroke-miterlimit="10" x1="87.281" y1="12.601" x2="84.54" y2="15.342"/>
	</g>
	<g>
		
			<polyline fill="none" stroke="#FFD14F" stroke-width="2" stroke-linecap="round" stroke-linejoin="round" stroke-miterlimit="10" points="
			27.528,79.502 32.834,79.502 37.281,88.636 12.719,88.636 16.613,79.502 22.476,79.502 		"/>
		<path fill="none" stroke="#FFD14F" stroke-width="2" stroke-miterlimit="10" d="M17.266,69.097c0-4.271,3.463-7.733,7.734-7.733
			c4.271,0,7.733,3.462,7.733,7.733c0,5.805-7.733,12.109-7.733,14.998C25.033,81.241,17.266,74.902,17.266,69.097z"/>
		<circle fill="none" stroke="#FFD14F" stroke-width="2" stroke-miterlimit="10" cx="25" cy="69.321" r="1.577"/>
	</g>
	<g>
		
			<polyline fill="none" stroke="#FFD14F" stroke-width="2" stroke-linecap="round" stroke-linejoin="round" stroke-miterlimit="10" points="
			112.124,60.975 137.876,58.399 137.568,88.142 134.16,87.476 		"/>
		
			<polygon fill="none" stroke="#FFD14F" stroke-width="2" stroke-linecap="round" stroke-linejoin="round" stroke-miterlimit="10" points="
			134.16,91.601 112.124,87.295 112.124,60.975 134.16,64.178 		"/>
	</g>
	<path fill="none" stroke="#FFD14F" stroke-width="2" stroke-linecap="round" stroke-linejoin="round" stroke-miterlimit="10" d="
		M182.834,79.891c-1.19,0-2.027,0-3.726,0v-2.865c2.628-1.684,3.007-5.106,3.007-8.217c0-4.326-2.788-7.834-7.114-7.834
		c-4.328,0-7.116,3.508-7.116,7.834c0,3.268,0.566,6.877,3.409,8.453v2.629c-2.091,0-3.301,0-4.681,0
		c-3.903,0-3.895,9.135-3.895,9.135h24.562C187.281,89.025,186.892,79.891,182.834,79.891z"/>
	<g>
		
			<circle fill="none" stroke="#FFD14F" stroke-width="2" stroke-linecap="round" stroke-linejoin="round" stroke-miterlimit="10" cx="74.999" cy="74.999" r="9.239"/>
		
			<line fill="none" stroke="#FFD14F" stroke-width="2" stroke-linecap="round" stroke-linejoin="round" stroke-miterlimit="10" x1="74.916" y1="57.55" x2="74.916" y2="61.425"/>
		
			<line fill="none" stroke="#FFD14F" stroke-width="2" stroke-linecap="round" stroke-linejoin="round" stroke-miterlimit="10" x1="62.602" y1="62.719" x2="65.342" y2="65.46"/>
		
			<line fill="none" stroke="#FFD14F" stroke-width="2" stroke-linecap="round" stroke-linejoin="round" stroke-miterlimit="10" x1="57.549" y1="75.083" x2="61.425" y2="75.082"/>
		
			<line fill="none" stroke="#FFD14F" stroke-width="2" stroke-linecap="round" stroke-linejoin="round" stroke-miterlimit="10" x1="62.719" y1="87.397" x2="65.46" y2="84.657"/>
		
			<line fill="none" stroke="#FFD14F" stroke-width="2" stroke-linecap="round" stroke-linejoin="round" stroke-miterlimit="10" x1="75.082" y1="92.45" x2="75.081" y2="88.574"/>
		
			<line fill="none" stroke="#FFD14F" stroke-width="2" stroke-linecap="round" stroke-linejoin="round" stroke-miterlimit="10" x1="87.398" y1="87.281" x2="84.657" y2="84.54"/>
		
			<line fill="none" stroke="#FFD14F" stroke-width="2" stroke-linecap="round" stroke-linejoin="round" stroke-miterlimit="10" x1="92.451" y1="74.916" x2="88.575" y2="74.917"/>
		
			<line fill="none" stroke="#FFD14F" stroke-width="2" stroke-linecap="round" stroke-linejoin="round" stroke-miterlimit="10" x1="87.281" y1="62.601" x2="84.54" y2="65.342"/>
	</g>
	<g>
		
			<polyline fill="none" stroke="#000000" stroke-width="2" stroke-linecap="round" stroke-linejoin="round" stroke-miterlimit="10" points="
			27.528,129.502 32.834,129.502 37.281,138.636 12.719,138.636 16.613,129.502 22.476,129.502 		"/>
		<path fill="none" stroke="#000000" stroke-width="2" stroke-miterlimit="10" d="M17.266,119.097c0-4.271,3.463-7.733,7.734-7.733
			c4.271,0,7.733,3.462,7.733,7.733c0,5.805-7.733,12.109-7.733,14.999C25.033,131.241,17.266,124.902,17.266,119.097z"/>
		<circle fill="none" stroke="#000000" stroke-width="2" stroke-miterlimit="10" cx="25" cy="119.321" r="1.577"/>
	</g>
	<g>
		
			<polyline fill="none" stroke="#000000" stroke-width="2" stroke-linecap="round" stroke-linejoin="round" stroke-miterlimit="10" points="
			112.124,110.975 137.876,108.399 137.568,138.142 134.16,137.476 		"/>
		
			<polygon fill="none" stroke="#000000" stroke-width="2" stroke-linecap="round" stroke-linejoin="round" stroke-miterlimit="10" points="
			134.16,141.601 112.124,137.295 112.124,110.975 134.16,114.178 		"/>
	</g>
	<path fill="none" stroke="#000000" stroke-width="2" stroke-linecap="round" stroke-linejoin="round" stroke-miterlimit="10" d="
		M182.834,129.891c-1.19,0-2.027,0-3.726,0v-2.865c2.628-1.684,3.007-5.106,3.007-8.217c0-4.326-2.788-7.834-7.114-7.834
		c-4.328,0-7.116,3.508-7.116,7.834c0,3.268,0.566,6.877,3.409,8.453v2.629c-2.091,0-3.301,0-4.681,0
		c-3.903,0-3.895,9.135-3.895,9.135h24.562C187.281,139.025,186.892,129.891,182.834,129.891z"/>
	<g>
		
			<circle fill="none" stroke="#000000" stroke-width="2" stroke-linecap="round" stroke-linejoin="round" stroke-miterlimit="10" cx="74.999" cy="124.999" r="9.239"/>
		
			<line fill="none" stroke="#000000" stroke-width="2" stroke-linecap="round" stroke-linejoin="round" stroke-miterlimit="10" x1="74.916" y1="107.55" x2="74.916" y2="111.425"/>
		
			<line fill="none" stroke="#000000" stroke-width="2" stroke-linecap="round" stroke-linejoin="round" stroke-miterlimit="10" x1="62.602" y1="112.719" x2="65.342" y2="115.46"/>
		
			<line fill="none" stroke="#000000" stroke-width="2" stroke-linecap="round" stroke-linejoin="round" stroke-miterlimit="10" x1="57.549" y1="125.083" x2="61.425" y2="125.082"/>
		
			<line fill="none" stroke="#000000" stroke-width="2" stroke-linecap="round" stroke-linejoin="round" stroke-miterlimit="10" x1="62.719" y1="137.397" x2="65.46" y2="134.657"/>
		
			<line fill="none" stroke="#000000" stroke-width="2" stroke-linecap="round" stroke-linejoin="round" stroke-miterlimit="10" x1="75.082" y1="142.45" x2="75.081" y2="138.574"/>
		
			<line fill="none" stroke="#000000" stroke-width="2" stroke-linecap="round" stroke-linejoin="round" stroke-miterlimit="10" x1="87.398" y1="137.281" x2="84.657" y2="134.54"/>
		
			<line fill="none" stroke="#000000" stroke-width="2" stroke-linecap="round" stroke-linejoin="round" stroke-miterlimit="10" x1="92.451" y1="124.916" x2="88.575" y2="124.917"/>
		
			<line fill="none" stroke="#000000" stroke-width="2" stroke-linecap="round" stroke-linejoin="round" stroke-miterlimit="10" x1="87.281" y1="112.601" x2="84.54" y2="115.342"/>
	</g>
</g>
</svg>
