<?xml version="1.0" encoding="utf-8"?>
<!-- Generator: Adobe Illustrator 17.0.0, SVG Export Plug-In . SVG Version: 6.00 Build 0)  -->
<!DOCTYPE svg PUBLIC "-//W3C//DTD SVG 1.1//EN" "http://www.w3.org/Graphics/SVG/1.1/DTD/svg11.dtd">
<svg version="1.1" id="Layer_1" xmlns="http://www.w3.org/2000/svg" xmlns:xlink="http://www.w3.org/1999/xlink" x="0px" y="0px"
	 width="80px" height="40px" viewBox="0 0 80 40" enable-background="new 0 0 80 40" xml:space="preserve">
<g id="FACEBOOK_2_">
	<path id="F_2_" fill="#FFFFFF" d="M21.637,32.922h-5.175V20.411h-2.588v-4.312h2.588V13.51c0-3.519,1.459-5.61,5.606-5.61h3.455
		v4.314h-2.156c-1.617,0-1.724,0.602-1.724,1.727l-0.007,2.157h3.911l-0.457,4.312h-3.454V32.922z"/>
</g>
<g id="TWITTER_2_1_">
	<path id="BIRD_1_" fill="#FFFFFF" d="M60.801,18.126c0,0-4.836,0.124-9.455-5.082c0,0-2.292,2.943,1.365,5.795
		c0,0-1.147,0.123-1.892-0.342c0,0-0.186,3.812,3.407,4.741H52.06c0,0,0.931,2.821,4.307,2.883c0,0-2.789,2.294-6.415,1.487
		c0,0,2.832,2.153,6.942,2.153c2.93,0,5.03-0.549,7.927-2.649c2.787-2.022,4.974-6.647,4.624-10.413c0,0,1.651-1.068,2.255-2.231
		c0,0-1.326,0.581-2.835,0.674c0,0,1.767-1.14,2.045-2.835c0,0-1.579,1.115-2.859,1.418c0,0-0.976-1.418-3.068-1.418
		c-2.091,0-3.462,1.324-3.903,2.695C60.531,16.7,60.801,18.126,60.801,18.126z"/>
</g>
</svg>
